<svg id="aedf406c-ab94-4ad9-ae5b-59f3e44ff217" data-name="Layer 1" xmlns="http://www.w3.org/2000/svg" viewBox="0 0 500 500">
  <defs>
    <style>
      .b208c072-2a8e-4336-93c5-4490ec028f83 {
        fill: #0187fe;
      }
    </style>
  </defs>
  <path class="b208c072-2a8e-4336-93c5-4490ec028f83" d="M174.41863,487.752H149.6551a4.83,4.83,0,0,0-1.10557-.38062c-3.26993-.29691-6.54843-.50718-9.81388-.84462A140.20446,140.20446,0,0,1,98.263,476.39236c-28.36369-11.99663-50.0579-31.25163-63.6705-59.11172-10.22267-20.9222-15.03191-43.28575-17.16067-66.32454-.23406-2.53323-.55013-5.05888-.82817-7.58807V318.18478a5.76929,5.76929,0,0,0,.39025-1.31273A275.66709,275.66709,0,0,1,21.322,280.88412a398.21791,398.21791,0,0,1,23.42443-78.52476c12.38683-30.19758,28.60214-58.12741,49.62676-83.17708,20.33257-24.22514,43.9794-44.737,70.12624-62.42705,23.00416-15.56382,47.27391-28.67592,73.64872-37.64734A225.3654,225.3654,0,0,1,293.14571,7.49548c2.26194-.17854,4.5132-.49238,6.76943-.74351h21.82548a9.82148,9.82148,0,0,0,1.35489.34343c9.02569.99772,18.11122,1.61453,27.06882,3.03749a217.7417,217.7417,0,0,1,69.75572,23.428c20.5821,11.10814,38.39372,25.51386,52.33591,44.4297,13.67115,18.54809,22.10922,39.19837,24.6173,62.18368.18573,1.70148.48428,3.39064.73036,5.08552V162.8881a12.07077,12.07077,0,0,0-.437,1.5019c-.93264,5.85911-1.59132,11.775-2.81277,17.5725-3.57121,16.94968-10.2328,32.73263-18.73926,47.75724a27.30355,27.30355,0,0,0-3.04472,7.92039c-2.17254,10.2309-6.19606,19.82947-10.48682,29.3098-9.80969,21.67395-21.739,42.18729-34.235,62.39324C410.57653,357.271,390.9812,383.333,367.32889,406.26261c-19.23373,18.646-40.10505,35.01113-63.97608,47.327-38.15932,19.68768-78.91459,29.98647-121.56073,33.37159C179.32885,487.15667,176.8762,487.48529,174.41863,487.752ZM427.28994,291.44162c-5.91736,5.33909-11.68586,10.85495-17.7789,15.98541a267.49266,267.49266,0,0,1-71.63338,43.4824,239.62566,239.62566,0,0,1-49.19605,14.35338c-6.72344,1.17762-13.47448,2.20022-20.21937,3.252-2.89972.45213-5.81589.79892-9.0024,1.23127.52129-.87554.875-1.46936,1.22852-2.06338,11.73876-19.72619,23.6572-39.34826,35.165-59.20832a408.82611,408.82611,0,0,0,29.06694-60.15221c1.9968-5.27638,3.78459-10.63184,5.77859-16.26208a13.6291,13.6291,0,0,0-1.38258.30093q-25.33411,9.21428-50.64693,18.48644a4.58,4.58,0,0,0-2.189,1.98735c-31.66917,57.8535-70.55232,110.49856-115.12416,158.9863A290.4225,290.4225,0,0,1,111.14705,455.207c-1.60567,1.09608-3.20913,2.19539-5.12344,3.50522.91939.38847,1.53024.66069,2.15137.907,14.62929,5.80062,29.93758,8.169,45.55152,8.75163a271.88785,271.88785,0,0,0,51.15452-3.38687,307.89548,307.89548,0,0,0,39.7355-8.73861c22.50837-6.55342,44.02459-15.41434,63.994-27.796,29.49192-18.2859,53.73238-42.36321,75.22421-69.28141,14.61566-18.30589,26.911-38.23994,38.76031-58.426,1.72569-2.93981,3.32887-5.95156,4.98872-8.93l.21063-.484ZM297.61362,343.82344c2.79522-.73759,5.13886-1.32723,7.46641-1.97462a242.086,242.086,0,0,0,77.58286-37.78094A283.34145,283.34145,0,0,0,435.22616,254.303c11.66631-14.16929,21.88839-29.28429,29.75534-45.92873,6.5359-13.82835,11.12286-28.23486,12.7752-43.47085a104.0514,104.0514,0,0,0-1.0844-29.83864c-3.46321-19.19095-11.7425-36.07688-24.14409-51.00327-12.51443-15.06224-27.847-26.55975-45.24863-35.38439-27.39521-13.89258-56.56314-21.03724-87.14453-22.51134a192.9833,192.9833,0,0,0-44.23384,2.93613,224.46928,224.46928,0,0,0-49.76342,15.32071c-30.29146,13.285-57.61414,31.24639-82.74217,52.64105A284.54007,284.54007,0,0,0,67.58171,198.14211,375.51627,375.51627,0,0,0,40.0329,285.94975a255.25343,255.25343,0,0,0-4.032,36.58433,212.789,212.789,0,0,0,1.95388,38.26017A186.03981,186.03981,0,0,0,46.06006,394.856c5.59364,16.12922,14.03038,30.51419,26.47771,42.37,1.758,1.67442,3.62722,3.23208,5.445,4.84379l.37164-.252c-.19159-.7773-.34085-1.568-.58123-2.32983a87.04,87.04,0,0,1-3.9492-28.04649,103.5145,103.5145,0,0,1,6.442-33.50575c6.94711-19.12245,18.02463-35.66543,31.54057-50.6934,13.98343-15.54771,30.20689-28.41505,47.641-39.84368,23.34339-15.30234,48.19638-27.73142,73.7357-38.8628q2.55379-1.1131,5.104-2.23448l.26279-.50729a7.5744,7.5744,0,0,1-1.09577-.60109,212.14612,212.14612,0,0,1-37.84927-38.4811c-8.26505-10.78583-15.47626-22.20935-20.37163-34.96168-3.58-9.32578-5.367-18.88461-3.51456-28.88657a98.49729,98.49729,0,0,1,11.4226-31.02031c7.87159-13.81266,18.16724-25.62437,30.05877-36.08133,10.09788-8.87971,20.76539-17.00657,32.82153-23.07606,13.0863-6.5881,26.78573-9.43578,41.31416-5.64295,19.08484,4.98235,34.769,20.003,36.6564,43.4975a80.86354,80.86354,0,0,1-.85461,19.23216c-1.95484,12.24148-4.56282,24.34894-7.71119,36.34074a462.1166,462.1166,0,0,1-28.50825,77.92115c-.24444.5244-.42384,1.07907-.71481,1.82906,22.52036-7.922,44.76021-15.74524,67.28649-23.66927-.64426,2.93155-1.22712,5.42787-1.73911,7.93865a291.50229,291.50229,0,0,1-14.94728,50.34641c-8.65349,21.59241-19.37291,42.15122-30.92612,62.298C305.92623,329.66731,301.88235,336.50407,297.61362,343.82344ZM309.40376,96.735c-.45243-3.55672-.59-6.64675-1.26567-9.61422C304.54549,71.343,289.41236,62.92554,273.92,64.80319a45.98235,45.98235,0,0,0-17.35275,6.08651,152.35375,152.35375,0,0,0-43.93095,37.34371c-7.86486,9.88827-13.9187,20.7763-16.98747,33.15344-1.31234,5.293-2.09362,10.55879-.77456,16.0495a76.43709,76.43709,0,0,0,7.775,19.22332c7.15031,12.89809,16.23143,24.37068,26.35343,35.0284a164.93352,164.93352,0,0,0,29.14506,24.78617,4.24625,4.24625,0,0,0,6.06333-1.56335c14.12526-27.37031,26.0458-55.65052,34.35949-85.33837,3.24336-11.58194,5.8008-23.36812,8.31234-35.13773C308.15518,108.47261,308.63034,102.34034,309.40376,96.735ZM248.547,263.05275c-.98551.2973-1.573.41522-2.11225.6458-20.201,8.6373-40.06931,17.96136-59.08759,29.00067-18.63359,10.816-36.4087,22.82626-52.00669,37.829-12.92029,12.42726-24.0317,26.21981-32.09828,42.32122A93.31551,93.31551,0,0,0,93.09369,408.217a66.27571,66.27571,0,0,0,2.29918,23.16153c.87344,3.03575,1.91544,6.023,2.94055,9.21884.83542-.493,1.31969-.74317,1.76692-1.04782a273.71718,273.71718,0,0,0,33.23808-26.80969,420.12311,420.12311,0,0,0,39.85248-43.3708q17.83305-22.20519,34.973-44.964a656.16,656.16,0,0,0,39.16183-59.03975C247.69682,264.73948,248.00792,264.07808,248.547,263.05275Z"/>
</svg>
